<?xml version="1.0" encoding="UTF-8" standalone="no"?>
<!-- Generator: Adobe Illustrator 29.4.0, SVG Export Plug-In . SVG Version: 9.03 Build 0)  -->

<svg
   version="1.0"
   id="Layer_1"
   x="0px"
   y="0px"
   viewBox="0 0 1920 784.2"
   style="enable-background:new 0 0 1920 784.2;"
   xml:space="preserve"
   sodipodi:docname="everest-black-full-color.svg"
   inkscape:version="1.4 (e7c3feb1, 2024-10-09)"
   xmlns:inkscape="http://www.inkscape.org/namespaces/inkscape"
   xmlns:sodipodi="http://sodipodi.sourceforge.net/DTD/sodipodi-0.dtd"
   xmlns="http://www.w3.org/2000/svg"
   xmlns:svg="http://www.w3.org/2000/svg"><defs
   id="defs27" /><sodipodi:namedview
   id="namedview27"
   pagecolor="#ffffff"
   bordercolor="#000000"
   borderopacity="0.25"
   inkscape:showpageshadow="2"
   inkscape:pageopacity="0.0"
   inkscape:pagecheckerboard="0"
   inkscape:deskcolor="#d1d1d1"
   inkscape:zoom="0.5406784"
   inkscape:cx="533.58891"
   inkscape:cy="505.84599"
   inkscape:window-width="2160"
   inkscape:window-height="1098"
   inkscape:window-x="0"
   inkscape:window-y="25"
   inkscape:window-maximized="0"
   inkscape:current-layer="Layer_1" />
<style
   type="text/css"
   id="style1">
	.st0{fill:url(#SVGID_1_);}
	.st1{opacity:0.6;fill:#FFFFFF;enable-background:new    ;}
	.st2{opacity:0.4;}
	.st3{fill:#FFFFFF;}
	.st4{fill:#353537;}
</style>
<radialGradient
   id="SVGID_1_"
   cx="648.22"
   cy="-169.898"
   r="5.3799"
   gradientTransform="matrix(167.35399,0,0,167.35399,-108369.36,29074.732)"
   gradientUnits="userSpaceOnUse">
	<stop
   offset="0.3333"
   style="stop-color:#0E5FB5"
   id="stop1" />
	<stop
   offset="1"
   style="stop-color:#62AEFF"
   id="stop2" />
</radialGradient>
<path
   class="st0"
   d="m 177.15948,90.688682 h 424.2777 c 45.85629,0 82.96987,37.199298 82.96987,82.969858 v 424.2777 c 0,45.85629 -37.19929,82.96987 -82.96987,82.96987 h -424.2777 c -45.85627,0 -82.969856,-37.19929 -82.969856,-82.96987 v -424.2777 c 0,-45.77056 37.113586,-82.969858 82.969856,-82.969858 z"
   id="path2"
   style="fill:url(#SVGID_1_);stroke-width:0.857127" />
<path
   class="st1"
   d="m 286.52884,379.11181 h 29.6566 l 14.82829,-25.7138 h -29.65659 z"
   id="path3"
   style="stroke-width:0.857127" />
<g
   class="st2"
   id="g5"
   transform="matrix(0.85712668,0,0,0.85712668,48.333347,51.003724)">
	<path
   class="st3"
   d="m 295.2,352.9 h -68.7 l -17.5,30 h 68.9 z"
   id="path4" />
	<path
   class="st3"
   d="m 329.8,352.9 -17.3,30 h 91.4 l 17.5,-30 z"
   id="path5" />
</g>
<path
   class="st1"
   d="m 256.87228,430.53941 h 29.65656 l 14.8283,-25.71381 h -29.65659 z"
   id="path6"
   style="stroke-width:0.857127" />
<g
   class="st2"
   id="g8"
   transform="matrix(0.85712668,0,0,0.85712668,48.333347,51.003724)">
	<path
   class="st3"
   d="m 260.6,412.9 h -69.1 l -17.5,30 h 69.3 z"
   id="path7" />
	<path
   class="st3"
   d="m 295.2,412.9 -17.3,30 h 161 l 17.5,-30 z"
   id="path8" />
</g>
<path
   class="st1"
   d="m 536.38128,456.25321 h -29.6566 l 14.8283,25.7138 h 29.65659 z"
   id="path9"
   style="stroke-width:0.857127" />
<g
   class="st2"
   id="g11"
   transform="matrix(0.85712668,0,0,0.85712668,48.333347,51.003724)">
	<path
   class="st3"
   d="m 534.7,472.8 h -78.4 l -17.5,30 H 552 Z"
   id="path10" />
	<path
   class="st3"
   d="m 569.4,472.8 17.3,30 h 52 l 17.5,-30 z"
   id="path11" />
</g>
<path
   class="st3"
   d="M 536.38128,456.25321 389.21263,201.34374 301.35714,353.48372 h 29.65659 l 58.11318,-100.62667 147.16865,254.90947 h -294.3373 l 74.22718,-128.56901 h -29.6566 l -14.82829,25.7138 h 29.65659 l -14.8283,25.71382 h -29.65656 l -59.3989,102.8552 h 383.39276 l -29.65657,-51.42761 h -29.65659 l -14.8283,-25.71379 h 29.6566 z"
   id="path12"
   style="stroke-width:0.857127" />
<path
   class="st3"
   d="m 509.72464,410.1398 c 25.37095,-16.54254 42.08491,-45.17058 42.08491,-77.7414 0,-51.25616 -41.57065,-92.82682 -92.82682,-92.82682 -15.08542,0 -29.39943,3.68565 -41.9992,10.02838 l 12.8569,22.2853 c 8.8284,-4.19991 18.68536,-6.59988 29.0566,-6.59988 37.11358,0 67.11301,30.08515 67.11301,67.11302 0,23.05672 -11.57121,43.37062 -29.22802,55.4561 z"
   id="path13"
   style="stroke-width:0.857127" />







<path
   class="st4"
   d="m 817.60744,436.09221 v 53.17472 h 73.75495 v 33.81826 h -73.75495 v 56.28957 h 83.21067 v 34.7082 H 773.66597 V 401.384 h 127.15214 v 34.70821 z"
   id="path21"
   style="stroke-width:1.11244;fill:#ffffff;fill-opacity:1" />
<path
   class="st4"
   d="m 1005.3877,574.81375 43.9414,-129.37704 h 46.7226 l -64.2992,168.64625 H 978.35541 L 914.27867,445.43671 h 47.05634 z"
   id="path22"
   style="stroke-width:1.11244;fill:#ffffff;fill-opacity:1" />
<path
   class="st4"
   d="m 1274.5988,526.20003 c 0,6.00718 -0.445,11.56939 -1.2238,16.3529 h -127.1521 c 1.0011,12.23686 5.451,21.69262 13.1268,28.58976 7.7871,6.89714 17.2428,10.3457 28.5897,10.3457 16.353,0 27.9224,-6.78589 34.8195,-20.35768 h 47.39 c -5.0059,16.24166 -14.6842,29.59097 -28.9234,40.27041 -14.2392,10.34571 -31.7047,15.46295 -52.396,15.46295 -16.6867,0 -31.8159,-3.55982 -45.1652,-10.67944 -13.1268,-7.34213 -23.5838,-17.57659 -31.0371,-30.81465 -7.3422,-13.12682 -11.0132,-28.36729 -11.0132,-45.61014 0,-17.46534 3.671,-32.81705 11.0132,-45.94387 7.3421,-13.12681 17.5766,-23.36129 30.7033,-30.48092 13.1268,-7.00839 28.3672,-10.5682 45.499,-10.5682 16.5753,0 31.2595,3.44858 44.2751,10.34572 13.2381,6.89714 23.3614,16.79788 30.4809,29.59096 7.3422,12.5706 11.0133,27.03235 11.0133,43.4965 z m -45.499,-12.23687 c -0.2224,-10.90193 -4.3385,-19.579 -12.2368,-26.1424 -7.8983,-6.67465 -17.6878,-10.01198 -29.146,-10.01198 -10.9019,0 -20.1352,3.33733 -27.5886,9.7895 -7.3421,6.22968 -11.7918,15.12921 -13.4605,26.47613 z"
   id="path23"
   style="stroke-width:1.11244;fill:#ffffff;fill-opacity:1" /><path
   class="st4"
   d="m 1319.825,248.74428 c 0,6.00718 -0.445,11.56939 -1.2238,16.3529 h -127.152 c 1.0011,12.23686 5.451,21.69262 13.1268,28.58976 7.7871,6.89714 17.2428,10.3457 28.5897,10.3457 16.353,0 27.9224,-6.78589 34.8195,-20.35768 h 47.3899 c -5.0059,16.24166 -14.6842,29.59097 -28.9234,40.27041 -14.2391,10.34571 -31.7046,15.46295 -52.3959,15.46295 -16.6867,0 -31.8159,-3.55982 -45.1652,-10.67944 -13.1268,-7.34213 -23.5838,-17.57659 -31.0371,-30.81465 -7.3422,-13.12682 -11.0132,-28.36729 -11.0132,-45.61014 0,-17.46534 3.671,-32.81705 11.0132,-45.94387 7.3421,-13.12681 17.5766,-23.36129 30.7033,-30.48092 13.1268,-7.00839 28.3672,-10.5682 45.499,-10.5682 16.5753,0 31.2595,3.44858 44.2751,10.34572 13.238,6.89714 23.3613,16.79788 30.4808,29.59096 7.3422,12.5706 11.0133,27.03235 11.0133,43.4965 z m -45.4989,-12.23687 c -0.2224,-10.90193 -4.3385,-19.579 -12.2368,-26.1424 -7.8983,-6.67465 -17.6878,-10.01198 -29.146,-10.01198 -10.9019,0 -20.1352,3.33733 -27.5886,9.7895 -7.3421,6.22968 -11.7918,15.12921 -13.4605,26.47613 z"
   id="path23-1"
   style="fill:#ffffff;stroke-width:1.11244;fill-opacity:1" />
<path
   class="st4"
   d="m 1342.7914,471.69034 c 5.6735,-9.01077 13.0156,-16.01916 21.9152,-21.02515 9.2332,-5.11724 19.6902,-7.5646 31.3708,-7.5646 v 44.72017 h -11.5694 c -13.7942,0 -24.2511,3.2261 -31.3709,9.45577 -6.8971,6.22967 -10.3457,17.24284 -10.3457,32.81704 v 83.98939 H 1298.85 V 445.54795 h 43.9414 z"
   id="path24"
   style="stroke-width:1.11244;fill:#ffffff;fill-opacity:1" />
<path
   class="st4"
   d="m 1579.5192,526.20003 c 0,6.00718 -0.4451,11.56939 -1.2238,16.3529 h -127.152 c 1.0012,12.23686 5.4509,21.69262 13.1267,28.58976 7.6759,6.89714 17.2428,10.3457 28.5898,10.3457 16.353,0 27.9223,-6.78589 34.8194,-20.35768 h 47.3902 c -5.0061,16.24166 -14.6843,29.59097 -28.8124,40.27041 -14.2392,10.34571 -31.7046,15.46295 -52.3961,15.46295 -16.7978,0 -31.8157,-3.55982 -45.165,-10.67944 -13.1269,-7.34213 -23.5838,-17.57659 -31.0373,-30.81465 -7.3421,-13.12682 -11.0131,-28.36729 -11.0131,-45.61014 0,-17.46534 3.671,-32.81705 11.0131,-45.94387 7.3423,-13.12681 17.5766,-23.36129 30.8147,-30.48092 13.1269,-7.00839 28.256,-10.5682 45.4989,-10.5682 16.4642,0 31.2596,3.44858 44.2753,10.34572 13.2379,6.89714 23.3611,16.79788 30.4809,29.59096 7.1196,12.5706 10.7907,27.03235 10.7907,43.4965 z m -45.6101,-12.23687 c -0.2226,-10.90193 -4.2273,-19.579 -12.237,-26.1424 -8.0096,-6.67465 -17.6878,-10.01198 -29.2571,-10.01198 -10.9021,0 -20.1353,3.33733 -27.6999,9.7895 -7.3421,6.22968 -11.7918,15.12921 -13.4605,26.47613 z"
   id="path25"
   style="stroke-width:1.11244;fill:#ffffff;fill-opacity:1" />
<path
   class="st4"
   d="m 1670.1833,616.86407 c -14.2395,0 -27.0326,-2.44737 -38.2682,-7.34212 -11.2357,-5.11723 -20.2464,-11.90313 -27.0323,-20.35769 -6.4522,-8.45458 -10.0119,-17.91032 -10.6795,-28.25602 h 44.2754 c 0.8897,6.56339 4.1159,11.90311 9.7893,16.1304 5.896,4.22728 13.1268,6.45216 21.6926,6.45216 8.3434,0 14.7955,-1.66867 19.4678,-4.89475 4.7834,-3.22607 7.2308,-7.34211 7.2308,-12.45935 0,-5.45097 -2.8921,-9.567 -8.7882,-12.23685 -5.6735,-2.78112 -14.7955,-5.89596 -27.2548,-9.12204 -13.0156,-3.0036 -23.695,-6.11842 -32.0384,-9.45576 -8.232,-3.22608 -15.3516,-8.23206 -21.3588,-14.90673 -5.896,-6.67464 -8.7884,-15.68543 -8.7884,-27.03234 0,-9.34452 2.7812,-17.91032 8.2321,-25.58618 5.6736,-7.67585 13.5719,-13.79427 23.8063,-18.24405 10.457,-4.44977 22.6938,-6.67466 36.7105,-6.67466 20.6915,0 37.2668,5.006 49.5037,15.24047 12.3482,9.90075 19.1341,23.36127 20.3577,40.4929 h -42.0503 c -0.5561,-6.67465 -3.5598,-12.01439 -8.7882,-15.79668 -5.0061,-4.11604 -11.9032,-6.11844 -20.3578,-6.11844 -8.0095,0 -14.1281,1.44618 -18.5777,4.22729 -4.2273,2.89234 -6.2296,6.7859 -6.2296,11.90312 0,5.67347 2.8922,10.01199 8.7881,13.12682 5.8961,2.89235 14.9069,5.7847 27.3663,8.89955 12.4592,3.00358 22.9161,6.11842 31.037,9.34451 8.1209,3.22608 15.1293,8.34332 21.0252,15.24047 6.0072,6.67465 9.2333,15.57418 9.3444,26.80985 0,9.78948 -2.781,18.46654 -8.4545,26.14238 -5.4509,7.67586 -13.4606,13.7943 -23.9174,18.24407 -10.1233,4.11604 -22.1376,6.22967 -36.0431,6.22967 z"
   id="path26"
   style="stroke-width:1.11244;fill:#ffffff;fill-opacity:1" />
<path
   class="st4"
   d="m 1818.0267,480.47865 v 81.54201 c 0,5.67346 1.3351,9.7895 4.1161,12.45935 2.8923,2.44738 7.6758,3.67107 14.4618,3.67107 h 20.3576 v 35.93188 h -27.5885 c -37.0443,0 -55.6221,-17.46533 -55.6221,-52.28479 V 480.47865 H 1753.06 v -35.04194 h 20.6916 v -41.60535 h 44.2751 v 41.60535 h 38.9355 v 35.04194 z"
   id="path27"
   style="stroke-width:1.11244;fill:#ffffff;fill-opacity:1" />
<path
   style="font-size:215.705px;font-family:Helvetica;-inkscape-font-specification:Helvetica;fill:#ffffff;stroke:#ffffff;stroke-width:11.2797;paint-order:stroke fill markers;fill-opacity:1;stroke-opacity:1"
   d="m 1348.0189,173.29651 h 25.4111 v 22.58765 c 7.5292,-9.31245 15.5041,-15.99959 23.925,-20.0614 8.4208,-4.06182 17.7829,-6.09273 28.086,-6.09273 22.5877,0 37.8443,7.87596 45.7698,23.62788 4.359,8.61897 6.5385,20.95303 6.5385,37.00214 V 332.45033 H 1450.555 V 232.1433 c 0,-9.70873 -1.4365,-17.53516 -4.3095,-23.47928 -4.7553,-9.90686 -13.3742,-14.8603 -25.857,-14.8603 -6.3404,0 -11.5414,0.64395 -15.6033,1.93184 -7.331,2.17951 -13.7705,6.53854 -19.3183,13.07707 -4.4581,5.25063 -7.3806,10.69941 -8.7676,16.34633 -1.2879,5.54783 -1.9318,13.52286 -1.9318,23.92507 v 83.3663 h -26.7486 z"
   id="path38" /><path
   style="font-size:215.705px;font-family:Helvetica;-inkscape-font-specification:Helvetica;fill:#ffffff;stroke:#ffffff;stroke-width:10.2003;paint-order:stroke fill markers;fill-opacity:1;stroke-opacity:1"
   d="m 1057.0718,303.88877 c 11.2883,0 20.6503,-4.70341 28.0862,-14.11023 7.5254,-9.49639 11.2881,-23.6514 11.2881,-42.46501 0,-11.46735 -1.6573,-21.3221 -4.9721,-29.56424 -6.2712,-15.8572 -17.7386,-23.78579 -34.4022,-23.78579 -16.7529,0 -28.2203,8.37654 -34.402,25.12962 -3.3148,8.95885 -4.9721,20.33661 -4.9721,34.13326 0,11.10899 1.6573,20.5606 4.9721,28.35481 6.2713,14.87172 17.7387,22.30758 34.402,22.30758 z M 994.44933,176.89686 h 23.51707 v 19.08239 c 4.8379,-6.53998 10.1236,-11.60173 15.8573,-15.18528 8.1525,-5.37532 17.7385,-8.06298 28.7579,-8.06298 16.3051,0 30.1467,6.2712 41.5244,18.81361 11.3778,12.45283 17.0666,30.28096 17.0666,53.48442 0,31.35603 -8.1974,53.75319 -24.592,67.19149 -10.3923,8.51092 -22.4869,12.76637 -36.2835,12.76637 -10.8401,0 -19.9335,-2.37409 -27.2797,-7.12228 -4.3003,-2.68766 -9.0933,-7.30148 -14.379,-13.84146 v 73.5075 h -24.18907 z"
   id="path36" /><path
   style="font-size:215.705px;font-family:Helvetica;-inkscape-font-specification:Helvetica;fill:#ffffff;stroke:#ffffff;stroke-width:9.91761;paint-order:stroke fill markers;fill-opacity:1;stroke-opacity:1"
   d="m 870.32283,132.00428 c 33.88401,0 58.97036,10.88818 75.25907,32.66452 12.71739,16.98556 19.07609,38.71835 19.07609,65.1984 0,28.65768 -7.27331,52.48101 -21.81991,71.46998 -17.07266,22.29899 -41.41862,33.44848 -73.03788,33.44848 -29.52874,0 -52.74233,-9.75581 -69.64078,-29.26742 -15.06923,-18.81476 -22.60384,-42.59454 -22.60384,-71.33932 0,-25.95742 6.4458,-48.16929 19.33739,-66.63564 16.55003,-23.69266 41.02665,-35.539 73.42986,-35.539 z m 2.61316,179.52424 c 22.90872,0 39.45874,-8.18791 49.65008,-24.56373 10.27845,-16.46292 15.41766,-35.36479 15.41766,-56.70561 0,-22.56031 -5.92317,-40.72179 -17.7695,-54.48444 -11.75924,-13.76265 -27.87373,-20.64398 -48.3435,-20.64398 -19.86004,0 -36.06165,6.83778 -48.60482,20.51332 -12.54318,13.58845 -18.81476,33.66624 -18.81476,60.23339 0,21.25372 5.35698,39.19743 16.07095,53.83114 10.80106,14.5466 28.26569,21.81991 52.39389,21.81991 z"
   id="text1" /><path
   style="font-size:215.705px;font-family:Helvetica;-inkscape-font-specification:Helvetica;fill:#ffffff;stroke:#ffffff;stroke-width:8.60654;paint-order:stroke fill markers;fill-opacity:1;stroke-opacity:1"
   d="m 870.03516,144.27449 c 29.4046,0 51.1747,9.44881 65.3101,28.3464 11.0362,14.74013 16.5542,33.59993 16.5542,56.57942 0,24.86924 -6.3118,45.54322 -18.9353,62.02192 -14.8157,19.35114 -35.9433,29.02671 -63.3825,29.02671 -25.6252,0 -45.7701,-8.46613 -60.4346,-25.39837 -13.0771,-16.32752 -19.61569,-36.96371 -19.61569,-61.90854 0,-22.52594 5.59369,-41.80149 16.78099,-57.82666 14.3623,-20.56058 35.6032,-30.84088 63.7228,-30.84088 z m 2.2677,155.79182 c 19.8803,0 34.2424,-7.1055 43.0865,-21.3165 8.9197,-14.28658 13.3795,-30.6897 13.3795,-49.20934 0,-19.57792 -5.1401,-35.33852 -15.4204,-47.2818 -10.2047,-11.94328 -24.1889,-17.91493 -41.9527,-17.91493 -17.2346,0 -31.2945,5.93385 -42.1794,17.80154 -10.8851,11.79211 -16.3276,29.21569 -16.3276,52.27076 0,18.44406 4.6489,34.01568 13.9465,46.71487 9.3732,12.62359 24.5291,18.9354 45.4676,18.9354 z"
   id="text1-7" /></svg>
